{"title":"Rango 2011 TS V3 READNFO XViD - IMAGiNE - Team MJY","uid":6278151,"size":1488176221,"categoryP":"video","categoryS":"movies","magnet":"?xt=urn:btih:384ee09d8637f8fa4f379e3c625e4351fae8afa2&amp;dn=Rango+2011+TS+V3+READNFO+XViD+-+IMAGiNE+-+Team+MJY&amp;tr=udp%3A%2F%2Ftracker.openbittorrent.com%3A80&amp;tr=udp%3A%2F%2Fopen.demonii.com%3A1337&amp;tr=udp%3A%2F%2Ftracker.coppersurfer.tk%3A6969&amp;tr=udp%3A%2F%2Fexodus.desync.com%3A6969","seeders":0,"leechers":1,"uploader":"kadavul","files":102,"time":1301339040,"description":"[CENTER][CENTER][SIZE=&quot;5&quot;][U]Rango 2011 TS V3 READNFO XViD - IMAGiNE - Team MJY[/U][/SIZE][/CENTER]\n\n\n\n\n[CENTER][QUOTE][SIZE=&quot;4&quot;]     Rango 2011 TS V3 READNFO XViD - IMAGiNE - Team MJY\n********************************************************************************************************************\n\nRipper ...........:IMAGiNE                                         IMDB Rating.......:7.9/10                             \nVideo Codec.......:XVID                                            Release Date......:27/03/11\nAudio Codec.......:MP3                                             Theatre Date......:04/03/11\nAudio Bitrate.....:128                                             Runtime...........:1h 41mn\nSubtitles.........:NIL                                             Language..........:ENGLISH\nResolution........:720 x 304                                       IMDb URL..........:http://www.imdb.com/title/tt1192628/\nDETAILS:\n\nVideo\nID                               : 0\nFormat                           : MPEG-4 Visual\nFormat profile                   : Advanced Simple@L5\nFormat settings, BVOP            : Yes\nFormat settings, QPel            : No\nFormat settings, GMC             : No warppoints\nFormat settings, Matrix          : Default (MPEG)\nMuxing mode                      : Packed bitstream\nCodec ID                         : XVID\nCodec ID/Hint                    : XviD\nDuration                         : 1h 41mn\nBit rate                         : 1 800 Kbps\nWidth                            : 720 pixels\nHeight                           : 304 pixels\nDisplay aspect ratio             : 2.35:1\nFrame rate                       : 25.000 fps\nColor space                      : YUV\nChroma subsampling               : 4:2:0\nBit depth                        : 8 bits\nScan type                        : Progressive\nCompression mode                 : Lossy\nBits/(Pixel*Frame)               : 0.329\nStream size                      : 1.28 GiB (93%)\nWriting library                  : XviD 61\n\nAudio\nID                               : 1\nFormat                           : MPEG Audio\nFormat version                   : Version 1\nFormat profile                   : Layer 3\nMode                             : Joint stereo\nMode extension                   : MS Stereo\nCodec ID                         : 55\nCodec ID/Hint                    : MP3\nDuration                         : 1h 41mn\nBit rate mode                    : Constant\nBit rate                         : 128 Kbps\nChannel(s)                       : 2 channels\nSampling rate                    : 44.1 KHz\nCompression mode                 : Lossy\nStream size                      : 93.1 MiB (7%)\nAlignment                        : Split accross interleaves\nInterleave, duration             : 40 ms (1.00 video frame)\n\n\n\n\n\n\nSOURCES:\n\nVIDEO: ADDiCTED  ... Thanks \nAUDIO: Thanks matey... Thanks\n\nNOTES:\n\nHere we go again with another rango....but this time we were given the 720p source files so we could get\nan even better rip.\nThe source files were nice but were interlaced,had wonky borders and was dull loooking.\nSo for this we needed to rotate the video to straighten it up and then crop the borders,but we used a\nperspective filter for that as they were still no dead straight,so this way you lost no video at all.\nWe then used our normal brightness,contrast,sat,sharpness filters to clean it up the best we could and then\nsave as a 480p rip.\nAudio same as before but resynced and changed it so there should be no convertxto dvd issues,and then we muxed\nit to our new encode.[/SIZE][/QUOTE][/CENTER]\n\n\n\n","torrent":{"xt":"urn:btih:384ee09d8637f8fa4f379e3c625e4351fae8afa2","amp;dn":"Rango+2011+TS+V3+READNFO+XViD+-+IMAGiNE+-+Team+MJY","amp;tr":["udp%3A%2F%2Ftracker.openbittorrent.com%3A80","udp%3A%2F%2Fopen.demonii.com%3A1337","udp%3A%2F%2Ftracker.coppersurfer.tk%3A6969","udp%3A%2F%2Fexodus.desync.com%3A6969"],"infoHash":"384ee09d8637f8fa4f379e3c625e4351fae8afa2","infoHashBuffer":{"type":"Buffer","data":[56,78,224,157,134,55,248,250,79,55,158,60,98,94,67,81,250,232,175,162]},"announce":[],"urlList":[]}}